<mxfile host="app.diagrams.net" modified="2022-11-24T21:26:02.053Z" agent="5.0 (Windows)" version="20.6.0" etag="gtXpsf-vmthZ29HOY6GY" type="github">
  <diagram id="H9P_Bu9OAFTprhCgtV0_" name="Page-1">
    <mxGraphModel dx="1874" dy="814" grid="1" gridSize="10" guides="1" tooltips="1" connect="1" arrows="1" fold="1" page="1" pageScale="1" pageWidth="827" pageHeight="1169" math="0" shadow="0">
      <root>
        <mxCell id="0" />
        <mxCell id="1" parent="0" />
        <mxCell id="i7MBgZ9J4eUlpomoZs5X-3" value="Configures typing test" style="shape=process;whiteSpace=wrap;html=1;backgroundOutline=1;" vertex="1" parent="1">
          <mxGeometry x="289" y="10" width="120" height="60" as="geometry" />
        </mxCell>
        <mxCell id="i7MBgZ9J4eUlpomoZs5X-4" value="Starts test from homepage" style="shape=process;whiteSpace=wrap;html=1;backgroundOutline=1;" vertex="1" parent="1">
          <mxGeometry x="419" y="10" width="120" height="60" as="geometry" />
        </mxCell>
        <mxCell id="i7MBgZ9J4eUlpomoZs5X-5" value="Start button" style="rounded=0;whiteSpace=wrap;html=1;" vertex="1" parent="1">
          <mxGeometry x="419" y="100" width="120" height="60" as="geometry" />
        </mxCell>
        <mxCell id="i7MBgZ9J4eUlpomoZs5X-8" value="Buttons to set options for typing test" style="rounded=0;whiteSpace=wrap;html=1;" vertex="1" parent="1">
          <mxGeometry x="289" y="100" width="120" height="60" as="geometry" />
        </mxCell>
        <mxCell id="i7MBgZ9J4eUlpomoZs5X-13" value="" style="endArrow=none;html=1;rounded=0;entryX=0.5;entryY=0;entryDx=0;entryDy=0;exitX=0.5;exitY=1;exitDx=0;exitDy=0;" edge="1" parent="1" source="i7MBgZ9J4eUlpomoZs5X-3" target="i7MBgZ9J4eUlpomoZs5X-8">
          <mxGeometry width="50" height="50" relative="1" as="geometry">
            <mxPoint x="229" y="410" as="sourcePoint" />
            <mxPoint x="279" y="360" as="targetPoint" />
          </mxGeometry>
        </mxCell>
        <mxCell id="i7MBgZ9J4eUlpomoZs5X-14" value="" style="endArrow=none;html=1;rounded=0;entryX=0.5;entryY=0;entryDx=0;entryDy=0;exitX=0.5;exitY=1;exitDx=0;exitDy=0;" edge="1" parent="1" source="i7MBgZ9J4eUlpomoZs5X-4" target="i7MBgZ9J4eUlpomoZs5X-5">
          <mxGeometry width="50" height="50" relative="1" as="geometry">
            <mxPoint x="229" y="410" as="sourcePoint" />
            <mxPoint x="279" y="360" as="targetPoint" />
          </mxGeometry>
        </mxCell>
        <mxCell id="i7MBgZ9J4eUlpomoZs5X-18" value="" style="rounded=0;whiteSpace=wrap;html=1;" vertex="1" parent="1">
          <mxGeometry x="269" y="400" width="290" height="70" as="geometry" />
        </mxCell>
        <mxCell id="i7MBgZ9J4eUlpomoZs5X-15" value="Menu in page header showing other pages to navigate to" style="rounded=0;whiteSpace=wrap;html=1;" vertex="1" parent="1">
          <mxGeometry x="280" y="405" width="120" height="60" as="geometry" />
        </mxCell>
        <mxCell id="i7MBgZ9J4eUlpomoZs5X-16" value="Navigate to other pages" style="shape=process;whiteSpace=wrap;html=1;backgroundOutline=1;" vertex="1" parent="1">
          <mxGeometry x="430" y="405" width="120" height="60" as="geometry" />
        </mxCell>
        <mxCell id="i7MBgZ9J4eUlpomoZs5X-17" value="" style="endArrow=none;html=1;rounded=0;exitX=0;exitY=0.5;exitDx=0;exitDy=0;entryX=1;entryY=0.5;entryDx=0;entryDy=0;" edge="1" parent="1" source="i7MBgZ9J4eUlpomoZs5X-16" target="i7MBgZ9J4eUlpomoZs5X-15">
          <mxGeometry width="50" height="50" relative="1" as="geometry">
            <mxPoint x="469" y="575" as="sourcePoint" />
            <mxPoint x="519" y="525" as="targetPoint" />
          </mxGeometry>
        </mxCell>
        <mxCell id="i7MBgZ9J4eUlpomoZs5X-20" value="" style="endArrow=classic;html=1;rounded=0;exitX=0.5;exitY=0;exitDx=0;exitDy=0;entryX=0.5;entryY=1;entryDx=0;entryDy=0;" edge="1" parent="1" source="i7MBgZ9J4eUlpomoZs5X-28" target="i7MBgZ9J4eUlpomoZs5X-8">
          <mxGeometry width="50" height="50" relative="1" as="geometry">
            <mxPoint x="414" y="250" as="sourcePoint" />
            <mxPoint x="410" y="280" as="targetPoint" />
          </mxGeometry>
        </mxCell>
        <mxCell id="i7MBgZ9J4eUlpomoZs5X-23" value="" style="endArrow=classic;html=1;rounded=0;exitX=0.5;exitY=0;exitDx=0;exitDy=0;entryX=0.5;entryY=1;entryDx=0;entryDy=0;" edge="1" parent="1" source="i7MBgZ9J4eUlpomoZs5X-28" target="i7MBgZ9J4eUlpomoZs5X-5">
          <mxGeometry width="50" height="50" relative="1" as="geometry">
            <mxPoint x="414" y="250" as="sourcePoint" />
            <mxPoint x="410" y="280" as="targetPoint" />
          </mxGeometry>
        </mxCell>
        <mxCell id="i7MBgZ9J4eUlpomoZs5X-24" value="" style="endArrow=classic;startArrow=classic;html=1;rounded=0;entryX=0.5;entryY=1;entryDx=0;entryDy=0;exitX=0.5;exitY=0;exitDx=0;exitDy=0;" edge="1" parent="1" source="i7MBgZ9J4eUlpomoZs5X-18" target="i7MBgZ9J4eUlpomoZs5X-28">
          <mxGeometry width="50" height="50" relative="1" as="geometry">
            <mxPoint x="360" y="330" as="sourcePoint" />
            <mxPoint x="414" y="310" as="targetPoint" />
          </mxGeometry>
        </mxCell>
        <mxCell id="i7MBgZ9J4eUlpomoZs5X-28" value="Homepage" style="rounded=1;whiteSpace=wrap;html=1;" vertex="1" parent="1">
          <mxGeometry x="354" y="250" width="120" height="60" as="geometry" />
        </mxCell>
        <mxCell id="i7MBgZ9J4eUlpomoZs5X-42" style="edgeStyle=orthogonalEdgeStyle;rounded=0;orthogonalLoop=1;jettySize=auto;html=1;exitX=0.5;exitY=1;exitDx=0;exitDy=0;entryX=0.5;entryY=0;entryDx=0;entryDy=0;" edge="1" parent="1" source="i7MBgZ9J4eUlpomoZs5X-31" target="i7MBgZ9J4eUlpomoZs5X-40">
          <mxGeometry relative="1" as="geometry" />
        </mxCell>
        <mxCell id="i7MBgZ9J4eUlpomoZs5X-31" value="Site Settings" style="rounded=1;whiteSpace=wrap;html=1;" vertex="1" parent="1">
          <mxGeometry x="80" y="470" width="120" height="60" as="geometry" />
        </mxCell>
        <mxCell id="i7MBgZ9J4eUlpomoZs5X-32" value="About Sectoin" style="rounded=1;whiteSpace=wrap;html=1;" vertex="1" parent="1">
          <mxGeometry x="640" y="470" width="120" height="60" as="geometry" />
        </mxCell>
        <mxCell id="i7MBgZ9J4eUlpomoZs5X-33" value="Game" style="rounded=1;whiteSpace=wrap;html=1;" vertex="1" parent="1">
          <mxGeometry x="354" y="650" width="120" height="60" as="geometry" />
        </mxCell>
        <mxCell id="i7MBgZ9J4eUlpomoZs5X-34" value="Displays information about the site and project" style="rounded=0;whiteSpace=wrap;html=1;" vertex="1" parent="1">
          <mxGeometry x="640" y="585" width="120" height="60" as="geometry" />
        </mxCell>
        <mxCell id="i7MBgZ9J4eUlpomoZs5X-35" value="" style="endArrow=classic;html=1;rounded=0;exitX=0.5;exitY=1;exitDx=0;exitDy=0;entryX=0.5;entryY=0;entryDx=0;entryDy=0;" edge="1" parent="1" source="i7MBgZ9J4eUlpomoZs5X-32" target="i7MBgZ9J4eUlpomoZs5X-34">
          <mxGeometry width="50" height="50" relative="1" as="geometry">
            <mxPoint x="360" y="420" as="sourcePoint" />
            <mxPoint x="410" y="370" as="targetPoint" />
          </mxGeometry>
        </mxCell>
        <mxCell id="i7MBgZ9J4eUlpomoZs5X-36" value="" style="endArrow=classic;startArrow=classic;html=1;rounded=0;entryX=1;entryY=0.5;entryDx=0;entryDy=0;exitX=0;exitY=0;exitDx=0;exitDy=0;" edge="1" parent="1" source="i7MBgZ9J4eUlpomoZs5X-32" target="i7MBgZ9J4eUlpomoZs5X-18">
          <mxGeometry width="50" height="50" relative="1" as="geometry">
            <mxPoint x="360" y="420" as="sourcePoint" />
            <mxPoint x="410" y="370" as="targetPoint" />
          </mxGeometry>
        </mxCell>
        <mxCell id="i7MBgZ9J4eUlpomoZs5X-38" value="" style="endArrow=classic;startArrow=classic;html=1;rounded=0;exitX=0;exitY=0.5;exitDx=0;exitDy=0;entryX=1;entryY=0;entryDx=0;entryDy=0;" edge="1" parent="1" source="i7MBgZ9J4eUlpomoZs5X-18" target="i7MBgZ9J4eUlpomoZs5X-31">
          <mxGeometry width="50" height="50" relative="1" as="geometry">
            <mxPoint x="360" y="420" as="sourcePoint" />
            <mxPoint x="410" y="370" as="targetPoint" />
          </mxGeometry>
        </mxCell>
        <mxCell id="i7MBgZ9J4eUlpomoZs5X-39" value="" style="endArrow=classic;startArrow=classic;html=1;rounded=0;entryX=0.5;entryY=1;entryDx=0;entryDy=0;exitX=0.5;exitY=0;exitDx=0;exitDy=0;" edge="1" parent="1" source="i7MBgZ9J4eUlpomoZs5X-33" target="i7MBgZ9J4eUlpomoZs5X-18">
          <mxGeometry width="50" height="50" relative="1" as="geometry">
            <mxPoint x="360" y="420" as="sourcePoint" />
            <mxPoint x="410" y="370" as="targetPoint" />
          </mxGeometry>
        </mxCell>
        <mxCell id="i7MBgZ9J4eUlpomoZs5X-40" value="Displays various settings to change the site TBD" style="rounded=0;whiteSpace=wrap;html=1;" vertex="1" parent="1">
          <mxGeometry x="80" y="585" width="120" height="60" as="geometry" />
        </mxCell>
        <mxCell id="i7MBgZ9J4eUlpomoZs5X-50" value="" style="curved=1;endArrow=classic;html=1;rounded=0;entryX=0;entryY=0.5;entryDx=0;entryDy=0;exitX=0;exitY=0.5;exitDx=0;exitDy=0;" edge="1" parent="1" source="i7MBgZ9J4eUlpomoZs5X-28" target="i7MBgZ9J4eUlpomoZs5X-33">
          <mxGeometry width="50" height="50" relative="1" as="geometry">
            <mxPoint x="240" y="330" as="sourcePoint" />
            <mxPoint x="280" y="710" as="targetPoint" />
            <Array as="points">
              <mxPoint x="190" y="260" />
              <mxPoint x="50" y="370" />
              <mxPoint y="570" />
              <mxPoint x="70" y="670" />
              <mxPoint x="230" y="690" />
            </Array>
          </mxGeometry>
        </mxCell>
        <mxCell id="i7MBgZ9J4eUlpomoZs5X-51" value="Presents the user with their test to play" style="shape=process;whiteSpace=wrap;html=1;backgroundOutline=1;" vertex="1" parent="1">
          <mxGeometry x="354" y="740" width="120" height="60" as="geometry" />
        </mxCell>
        <mxCell id="i7MBgZ9J4eUlpomoZs5X-52" value="" style="endArrow=none;html=1;rounded=0;exitX=0.5;exitY=1;exitDx=0;exitDy=0;entryX=0.5;entryY=0;entryDx=0;entryDy=0;" edge="1" parent="1" source="i7MBgZ9J4eUlpomoZs5X-33" target="i7MBgZ9J4eUlpomoZs5X-51">
          <mxGeometry width="50" height="50" relative="1" as="geometry">
            <mxPoint x="480" y="630" as="sourcePoint" />
            <mxPoint x="530" y="580" as="targetPoint" />
          </mxGeometry>
        </mxCell>
      </root>
    </mxGraphModel>
  </diagram>
</mxfile>
